# xmcd
#
# Track frame offsets:
#       150
#       19702
#       38004
#       55646
#       71098
#       110690
#       122412
#       154504
#       181816
#       199648
#       217300
#       230372
#
# Disc length: 3259 seconds
#
# Revision: 0
# Processed by: cddbd v1.4PL0 Copyright (c) Steve Scherf et al.
#
# Submitted via: MusicManager v5.1.0.0
#
DISCID=9c0cb90c
DTITLE=Willie Nelson - Georgia On My Mind
DYEAR=1900
DGENRE=country
TTITLE0=Georgia On My Mind
TTITLE1=Breathlesly
TTITLE2=All Of Me
TTITLE3=A Penny For Your Thoughts
TTITLE4=Funny How Time Slips Away, Crazy
TTITLE5=Sunny Side Of The Street
TTITLE6=Sunday Morning Sidewalk
TTITLE7=Till i Gain Control
TTITLE8=Why Me Lord
TTITLE9=Unchained Melody
TTITLE10=You Are My Sunshine
TTITLE11=My Hero's Have Always Been Cowboys
EXTD=
EXTT0=
EXTT1=
EXTT2=
EXTT3=
EXTT4=
EXTT5=
EXTT6=
EXTT7=
EXTT8=
EXTT9=
EXTT10=
EXTT11=
PLAYORDER=
